<?xml version="1.0" encoding="UTF-8"?>
<mxfile host="app.diagrams.net" type="device">
  <diagram name="Code Review System v2.1.0 Architecture">
    <mxGraphModel dx="2400" dy="1600" grid="1" gridSize="10" background="#ffffff">
      <root>
        <mxCell id="0" />
        <mxCell id="1" parent="0" />

        <!-- Title -->
        <mxCell id="title" value="Code Review System v2.1.0 - Comprehensive Architecture" style="text;html=1;fontSize=24;fontStyle=1;fontColor=#000000;align=center" vertex="1" parent="1">
          <mxGeometry x="600" y="20" width="800" height="40" as="geometry" />
        </mxCell>

        <!-- Key Statistics Box -->
        <mxCell id="stats" value="&lt;b&gt;📊 Key Statistics v2.1.0:&lt;/b&gt;&lt;br/&gt;• 27,884 files scanned&lt;br/&gt;• 15,710 files indexed&lt;br/&gt;• 2,600 problematic files found&lt;br/&gt;• Categories: 緊急(392), 高(423), 中(1,785), 低(0)&lt;br/&gt;• Processing time: ~27.88 seconds&lt;br/&gt;• 6 batches for detailed analysis&lt;br/&gt;• Output: 24.3MB complete report" style="rounded=1;whiteSpace=wrap;html=1;spacing=10;fillColor=#f0f8ff;strokeColor=#1e90ff;fontColor=#000000;strokeWidth=2;fontSize=12;align=left;verticalAlign=top;fontStyle=1" vertex="1" parent="1">
          <mxGeometry x="50" y="80" width="320" height="160" as="geometry" />
        </mxCell>

        <!-- INPUT LAYER -->
        <mxCell id="inputLayer" value="🔧 INPUT LAYER" style="text;html=1;fontSize=16;fontStyle=1;fontColor=#ffffff;fillColor=#1f497d;strokeColor=none;rounded=1;spacing=10" vertex="1" parent="1">
          <mxGeometry x="400" y="100" width="140" height="30" as="geometry" />
        </mxCell>

        <!-- User -->
        <mxCell id="user" value="👤&lt;br/&gt;User" style="rounded=0;whiteSpace=wrap;html=1;spacing=10;fillColor=#d5e8d4;strokeColor=#82b366;fontColor=#000000;strokeWidth=2;fontSize=12;fontStyle=1" vertex="1" parent="1">
          <mxGeometry x="400" y="150" width="120" height="60" as="geometry" />
        </mxCell>

        <!-- CLI -->
        <mxCell id="cli" value="💻&lt;br/&gt;Command Line&lt;br/&gt;Interface" style="rounded=0;whiteSpace=wrap;html=1;spacing=10;fillColor=#dae8fc;strokeColor=#6c8ebf;fontColor=#000000;strokeWidth=2;fontSize=11" vertex="1" parent="1">
          <mxGeometry x="550" y="150" width="120" height="60" as="geometry" />
        </mxCell>

        <!-- Batch File -->
        <mxCell id="batchFile" value="⚙️&lt;br/&gt;Batch File&lt;br/&gt;run_detailed_analysis_auto.bat" style="rounded=0;whiteSpace=wrap;html=1;spacing=10;fillColor=#dae8fc;strokeColor=#6c8ebf;fontColor=#000000;strokeWidth=2;fontSize=10" vertex="1" parent="1">
          <mxGeometry x="700" y="150" width="160" height="60" as="geometry" />
        </mxCell>

        <!-- Environment Config -->
        <mxCell id="envConfig" value="🔧&lt;br/&gt;Environment Config&lt;br/&gt;(.env)" style="rounded=0;whiteSpace=wrap;html=1;spacing=10;fillColor=#fff2cc;strokeColor=#d6b656;fontColor=#000000;strokeWidth=2;fontSize=11" vertex="1" parent="1">
          <mxGeometry x="890" y="150" width="130" height="60" as="geometry" />
        </mxCell>

        <!-- CORE SYSTEM -->
        <mxCell id="coreLayer" value="🎯 CORE SYSTEM" style="text;html=1;fontSize=16;fontStyle=1;fontColor=#ffffff;fillColor=#1f497d;strokeColor=none;rounded=1;spacing=10" vertex="1" parent="1">
          <mxGeometry x="400" y="260" width="150" height="30" as="geometry" />
        </mxCell>

        <!-- Main Controller v2.1 -->
        <mxCell id="mainController" value="🚀&lt;br/&gt;&lt;b&gt;codex_review_severity.py&lt;/b&gt;&lt;br/&gt;Main Controller v2.1" style="rounded=0;whiteSpace=wrap;html=1;spacing=10;fillColor=#e1d5e7;strokeColor=#9673a6;fontColor=#000000;strokeWidth=3;fontSize=12;fontStyle=1" vertex="1" parent="1">
          <mxGeometry x="400" y="310" width="200" height="80" as="geometry" />
        </mxCell>

        <!-- Index Creation -->
        <mxCell id="indexCreation" value="📄&lt;br/&gt;Index Creation&lt;br/&gt;(supports --all option)" style="rounded=0;whiteSpace=wrap;html=1;spacing=10;fillColor=#dae8fc;strokeColor=#6c8ebf;fontColor=#000000;strokeWidth=2;fontSize=11" vertex="1" parent="1">
          <mxGeometry x="630" y="310" width="150" height="80" as="geometry" />
        </mxCell>

        <!-- Encoding Detection -->
        <mxCell id="encodingDetection" value="🔍&lt;br/&gt;Encoding Detection&lt;br/&gt;UTF-8/CP932/Shift-JIS/Latin-1" style="rounded=0;whiteSpace=wrap;html=1;spacing=10;fillColor=#dae8fc;strokeColor=#6c8ebf;fontColor=#000000;strokeWidth=2;fontSize=10" vertex="1" parent="1">
          <mxGeometry x="810" y="310" width="160" height="80" as="geometry" />
        </mxCell>

        <!-- File Filter -->
        <mxCell id="fileFilter" value="🗂️&lt;br/&gt;File Filter&lt;br/&gt;(language and size)" style="rounded=0;whiteSpace=wrap;html=1;spacing=10;fillColor=#dae8fc;strokeColor=#6c8ebf;fontColor=#000000;strokeWidth=2;fontSize=11" vertex="1" parent="1">
          <mxGeometry x="1000" y="310" width="140" height="80" as="geometry" />
        </mxCell>

        <!-- ANALYSIS ENGINE -->
        <mxCell id="analysisLayer" value="🔬 ANALYSIS ENGINE" style="text;html=1;fontSize=16;fontStyle=1;fontColor=#ffffff;fillColor=#1f497d;strokeColor=none;rounded=1;spacing=10" vertex="1" parent="1">
          <mxGeometry x="400" y="440" width="180" height="30" as="geometry" />
        </mxCell>

        <!-- Rule-based Analysis -->
        <mxCell id="ruleAnalysis" value="📋&lt;br/&gt;&lt;b&gt;Rule-based Analysis&lt;/b&gt;&lt;br/&gt;15,710 files processed" style="rounded=0;whiteSpace=wrap;html=1;spacing=10;fillColor=#f8cecc;strokeColor=#b85450;fontColor=#000000;strokeWidth=2;fontSize=11;fontStyle=1" vertex="1" parent="1">
          <mxGeometry x="400" y="490" width="150" height="80" as="geometry" />
        </mxCell>

        <!-- Severity Scoring -->
        <mxCell id="severityScoring" value="⚡&lt;br/&gt;Severity Scoring&lt;br/&gt;緊急/高/中/低" style="rounded=0;whiteSpace=wrap;html=1;spacing=10;fillColor=#f8cecc;strokeColor=#b85450;fontColor=#000000;strokeWidth=2;fontSize=11" vertex="1" parent="1">
          <mxGeometry x="580" y="490" width="140" height="80" as="geometry" />
        </mxCell>

        <!-- Detailed Analysis -->
        <mxCell id="detailedAnalysis" value="🤖&lt;br/&gt;analyze_dangerous_files_detailed.py&lt;br/&gt;Detailed AI Analysis" style="rounded=0;whiteSpace=wrap;html=1;spacing=10;fillColor=#f8cecc;strokeColor=#b85450;fontColor=#000000;strokeWidth=2;fontSize=10" vertex="1" parent="1">
          <mxGeometry x="750" y="490" width="180" height="80" as="geometry" />
        </mxCell>

        <!-- DATA PROCESSING -->
        <mxCell id="dataLayer" value="⚙️ DATA PROCESSING" style="text;html=1;fontSize=16;fontStyle=1;fontColor=#ffffff;fillColor=#1f497d;strokeColor=none;rounded=1;spacing=10" vertex="1" parent="1">
          <mxGeometry x="400" y="620" width="180" height="30" as="geometry" />
        </mxCell>

        <!-- TF-IDF -->
        <mxCell id="tfidf" value="🧮&lt;br/&gt;TF-IDF&lt;br/&gt;Vectorization" style="rounded=0;whiteSpace=wrap;html=1;spacing=10;fillColor=#e1d5e7;strokeColor=#9673a6;fontColor=#000000;strokeWidth=2;fontSize=11" vertex="1" parent="1">
          <mxGeometry x="400" y="670" width="130" height="80" as="geometry" />
        </mxCell>

        <!-- scikit-learn -->
        <mxCell id="sklearn" value="🔎&lt;br/&gt;scikit-learn&lt;br/&gt;similarity search" style="rounded=0;whiteSpace=wrap;html=1;spacing=10;fillColor=#e1d5e7;strokeColor=#9673a6;fontColor=#000000;strokeWidth=2;fontSize=11" vertex="1" parent="1">
          <mxGeometry x="560" y="670" width="130" height="80" as="geometry" />
        </mxCell>

        <!-- Batch Processing -->
        <mxCell id="batchProcessing" value="⚙️&lt;br/&gt;Batch Processing&lt;br/&gt;(500 files/batch)" style="rounded=0;whiteSpace=wrap;html=1;spacing=10;fillColor=#e1d5e7;strokeColor=#9673a6;fontColor=#000000;strokeWidth=2;fontSize=11" vertex="1" parent="1">
          <mxGeometry x="720" y="670" width="130" height="80" as="geometry" />
        </mxCell>

        <!-- REPORT GENERATION -->
        <mxCell id="reportLayer" value="📊 REPORT GENERATION" style="text;html=1;fontSize=16;fontStyle=1;fontColor=#ffffff;fillColor=#1f497d;strokeColor=none;rounded=1;spacing=10" vertex="1" parent="1">
          <mxGeometry x="400" y="800" width="200" height="30" as="geometry" />
        </mxCell>

        <!-- Overview Report -->
        <mxCell id="overviewReport" value="📈&lt;br/&gt;create_overview_report.py" style="rounded=0;whiteSpace=wrap;html=1;spacing=10;fillColor=#fff2cc;strokeColor=#d6b656;fontColor=#000000;strokeWidth=2;fontSize=11" vertex="1" parent="1">
          <mxGeometry x="400" y="850" width="160" height="60" as="geometry" />
        </mxCell>

        <!-- Merge Reports -->
        <mxCell id="mergeReports" value="🔗&lt;br/&gt;merge_detailed_reports.py" style="rounded=0;whiteSpace=wrap;html=1;spacing=10;fillColor=#fff2cc;strokeColor=#d6b656;fontColor=#000000;strokeWidth=2;fontSize=11" vertex="1" parent="1">
          <mxGeometry x="590" y="850" width="160" height="60" as="geometry" />
        </mxCell>

        <!-- DATA STORAGE -->
        <mxCell id="storageLayer" value="💾 DATA STORAGE" style="text;html=1;fontSize=16;fontStyle=1;fontColor=#ffffff;fillColor=#1f497d;strokeColor=none;rounded=1;spacing=10" vertex="1" parent="1">
          <mxGeometry x="1200" y="440" width="150" height="30" as="geometry" />
        </mxCell>

        <!-- Index Files -->
        <mxCell id="indexFiles" value="💾&lt;br/&gt;.advice_index.pickle&lt;br/&gt;.advice_index.meta.json" style="rounded=0;whiteSpace=wrap;html=1;spacing=10;fillColor=#ffeaa7;strokeColor=#fdcb6e;fontColor=#000000;strokeWidth=2;fontSize=10" vertex="1" parent="1">
          <mxGeometry x="1200" y="490" width="160" height="80" as="geometry" />
        </mxCell>

        <!-- Large Files Log -->
        <mxCell id="largeFilesLog" value="📋&lt;br/&gt;large_files_over_limit.log" style="rounded=0;whiteSpace=wrap;html=1;spacing=10;fillColor=#ffeaa7;strokeColor=#fdcb6e;fontColor=#000000;strokeWidth=2;fontSize=11" vertex="1" parent="1">
          <mxGeometry x="1200" y="590" width="160" height="60" as="geometry" />
        </mxCell>

        <!-- OUTPUT LAYER -->
        <mxCell id="outputLayer" value="📤 OUTPUT LAYER" style="text;html=1;fontSize=16;fontStyle=1;fontColor=#ffffff;fillColor=#1f497d;strokeColor=none;rounded=1;spacing=10" vertex="1" parent="1">
          <mxGeometry x="400" y="960" width="150" height="30" as="geometry" />
        </mxCell>

        <!-- Complete Analysis -->
        <mxCell id="completeAnalysis" value="📄&lt;br/&gt;src_complete_danger_analysis.md" style="rounded=0;whiteSpace=wrap;html=1;spacing=10;fillColor=#d5e8d4;strokeColor=#82b366;fontColor=#000000;strokeWidth=2;fontSize=10;fontStyle=1" vertex="1" parent="1">
          <mxGeometry x="400" y="1010" width="180" height="60" as="geometry" />
        </mxCell>

        <!-- Overview MD -->
        <mxCell id="overviewMD" value="📊&lt;br/&gt;AI分析.md&lt;br/&gt;(Overview)" style="rounded=0;whiteSpace=wrap;html=1;spacing=10;fillColor=#d5e8d4;strokeColor=#82b366;fontColor=#000000;strokeWidth=2;fontSize=10" vertex="1" parent="1">
          <mxGeometry x="610" y="1010" width="140" height="60" as="geometry" />
        </mxCell>

        <!-- Detailed Reports -->
        <mxCell id="detailedReports" value="📑&lt;br/&gt;AI分析_詳細_改善版_batch1-6.md" style="rounded=0;whiteSpace=wrap;html=1;spacing=10;fillColor=#d5e8d4;strokeColor=#82b366;fontColor=#000000;strokeWidth=2;fontSize=9" vertex="1" parent="1">
          <mxGeometry x="780" y="1010" width="180" height="60" as="geometry" />
        </mxCell>

        <!-- Complete Report -->
        <mxCell id="completeReport" value="📖&lt;br/&gt;&lt;b&gt;AI分析_詳細_改善版_完全版.md&lt;/b&gt;&lt;br/&gt;(24.3MB Final Report)" style="rounded=0;whiteSpace=wrap;html=1;spacing=10;fillColor=#d5e8d4;strokeColor=#82b366;fontColor=#000000;strokeWidth=2;fontSize=10;fontStyle=1" vertex="1" parent="1">
          <mxGeometry x="990" y="1010" width="180" height="60" as="geometry" />
        </mxCell>

        <!-- FLOW CONNECTIONS -->

        <!-- User to CLI -->
        <mxCell id="flow1" value="" style="endArrow=classic;html=1;strokeColor=#333333;strokeWidth=2;edgeStyle=orthogonalEdgeStyle" edge="1" parent="1" source="user" target="cli">
          <mxGeometry relative="1" as="geometry" />
        </mxCell>

        <!-- CLI to Batch -->
        <mxCell id="flow2" value="" style="endArrow=classic;html=1;strokeColor=#333333;strokeWidth=2;edgeStyle=orthogonalEdgeStyle" edge="1" parent="1" source="cli" target="batchFile">
          <mxGeometry relative="1" as="geometry" />
        </mxCell>

        <!-- Batch to Main Controller -->
        <mxCell id="flow3" value="triggers" style="endArrow=classic;html=1;strokeColor=#333333;strokeWidth=2;edgeStyle=orthogonalEdgeStyle;fontColor=#333333;fontSize=10;labelBackgroundColor=#FFFFFF" edge="1" parent="1" source="batchFile" target="mainController">
          <mxGeometry relative="1" as="geometry">
            <Array as="points">
              <mxPoint x="780" y="280" />
              <mxPoint x="500" y="280" />
            </Array>
          </mxGeometry>
        </mxCell>

        <!-- Env Config to Main Controller -->
        <mxCell id="flow4" value="configures" style="endArrow=classic;html=1;strokeColor=#d6b656;strokeWidth=2;edgeStyle=orthogonalEdgeStyle;fontColor=#d6b656;fontSize=10;labelBackgroundColor=#FFFFFF" edge="1" parent="1" source="envConfig" target="mainController">
          <mxGeometry relative="1" as="geometry">
            <Array as="points">
              <mxPoint x="955" y="280" />
              <mxPoint x="500" y="280" />
            </Array>
          </mxGeometry>
        </mxCell>

        <!-- Main Controller to Processing Components -->
        <mxCell id="flow5" value="" style="endArrow=classic;html=1;strokeColor=#333333;strokeWidth=2;edgeStyle=orthogonalEdgeStyle" edge="1" parent="1" source="mainController" target="indexCreation">
          <mxGeometry relative="1" as="geometry" />
        </mxCell>

        <mxCell id="flow6" value="" style="endArrow=classic;html=1;strokeColor=#333333;strokeWidth=2;edgeStyle=orthogonalEdgeStyle" edge="1" parent="1" source="indexCreation" target="encodingDetection">
          <mxGeometry relative="1" as="geometry" />
        </mxCell>

        <mxCell id="flow7" value="" style="endArrow=classic;html=1;strokeColor=#333333;strokeWidth=2;edgeStyle=orthogonalEdgeStyle" edge="1" parent="1" source="encodingDetection" target="fileFilter">
          <mxGeometry relative="1" as="geometry" />
        </mxCell>

        <!-- Processing to Analysis -->
        <mxCell id="flow8" value="27,884 files" style="endArrow=classic;html=1;strokeColor=#333333;strokeWidth=2;edgeStyle=orthogonalEdgeStyle;fontColor=#333333;fontSize=10;labelBackgroundColor=#FFFFFF" edge="1" parent="1" source="mainController" target="ruleAnalysis">
          <mxGeometry relative="1" as="geometry">
            <Array as="points">
              <mxPoint x="475" y="420" />
              <mxPoint x="475" y="420" />
            </Array>
          </mxGeometry>
        </mxCell>

        <mxCell id="flow9" value="2,600 issues" style="endArrow=classic;html=1;strokeColor=#333333;strokeWidth=2;edgeStyle=orthogonalEdgeStyle;fontColor=#333333;fontSize=10;labelBackgroundColor=#FFFFFF" edge="1" parent="1" source="ruleAnalysis" target="severityScoring">
          <mxGeometry relative="1" as="geometry" />
        </mxCell>

        <mxCell id="flow10" value="categorized" style="endArrow=classic;html=1;strokeColor=#333333;strokeWidth=2;edgeStyle=orthogonalEdgeStyle;fontColor=#333333;fontSize=10;labelBackgroundColor=#FFFFFF" edge="1" parent="1" source="severityScoring" target="detailedAnalysis">
          <mxGeometry relative="1" as="geometry" />
        </mxCell>

        <!-- Analysis to Data Processing -->
        <mxCell id="flow11" value="" style="endArrow=classic;html=1;strokeColor=#333333;strokeWidth=2;edgeStyle=orthogonalEdgeStyle" edge="1" parent="1" source="ruleAnalysis" target="tfidf">
          <mxGeometry relative="1" as="geometry">
            <Array as="points">
              <mxPoint x="465" y="600" />
              <mxPoint x="465" y="600" />
            </Array>
          </mxGeometry>
        </mxCell>

        <mxCell id="flow12" value="" style="endArrow=classic;html=1;strokeColor=#333333;strokeWidth=2;edgeStyle=orthogonalEdgeStyle" edge="1" parent="1" source="tfidf" target="sklearn">
          <mxGeometry relative="1" as="geometry" />
        </mxCell>

        <mxCell id="flow13" value="6 batches" style="endArrow=classic;html=1;strokeColor=#333333;strokeWidth=2;edgeStyle=orthogonalEdgeStyle;fontColor=#333333;fontSize=10;labelBackgroundColor=#FFFFFF" edge="1" parent="1" source="sklearn" target="batchProcessing">
          <mxGeometry relative="1" as="geometry" />
        </mxCell>

        <!-- Processing to Reports -->
        <mxCell id="flow14" value="" style="endArrow=classic;html=1;strokeColor=#333333;strokeWidth=2;edgeStyle=orthogonalEdgeStyle" edge="1" parent="1" source="detailedAnalysis" target="overviewReport">
          <mxGeometry relative="1" as="geometry">
            <Array as="points">
              <mxPoint x="840" y="780" />
              <mxPoint x="480" y="780" />
            </Array>
          </mxGeometry>
        </mxCell>

        <mxCell id="flow15" value="" style="endArrow=classic;html=1;strokeColor=#333333;strokeWidth=2;edgeStyle=orthogonalEdgeStyle" edge="1" parent="1" source="batchProcessing" target="mergeReports">
          <mxGeometry relative="1" as="geometry">
            <Array as="points">
              <mxPoint x="785" y="780" />
              <mxPoint x="670" y="780" />
            </Array>
          </mxGeometry>
        </mxCell>

        <!-- Storage Connections -->
        <mxCell id="flow16" value="stores" style="endArrow=classic;html=1;strokeColor=#fdcb6e;strokeWidth=2;edgeStyle=orthogonalEdgeStyle;fontColor=#fdcb6e;fontSize=10;labelBackgroundColor=#FFFFFF" edge="1" parent="1" source="indexCreation" target="indexFiles">
          <mxGeometry relative="1" as="geometry">
            <Array as="points">
              <mxPoint x="705" y="420" />
              <mxPoint x="1280" y="420" />
            </Array>
          </mxGeometry>
        </mxCell>

        <mxCell id="flow17" value="logs" style="endArrow=classic;html=1;strokeColor=#fdcb6e;strokeWidth=2;edgeStyle=orthogonalEdgeStyle;fontColor=#fdcb6e;fontSize=10;labelBackgroundColor=#FFFFFF" edge="1" parent="1" source="fileFilter" target="largeFilesLog">
          <mxGeometry relative="1" as="geometry">
            <Array as="points">
              <mxPoint x="1070" y="450" />
              <mxPoint x="1280" y="450" />
            </Array>
          </mxGeometry>
        </mxCell>

        <!-- Report Generation to Output -->
        <mxCell id="flow18" value="" style="endArrow=classic;html=1;strokeColor=#82b366;strokeWidth=2;edgeStyle=orthogonalEdgeStyle" edge="1" parent="1" source="overviewReport" target="completeAnalysis">
          <mxGeometry relative="1" as="geometry">
            <Array as="points">
              <mxPoint x="480" y="940" />
              <mxPoint x="490" y="940" />
            </Array>
          </mxGeometry>
        </mxCell>

        <mxCell id="flow19" value="" style="endArrow=classic;html=1;strokeColor=#82b366;strokeWidth=2;edgeStyle=orthogonalEdgeStyle" edge="1" parent="1" source="overviewReport" target="overviewMD">
          <mxGeometry relative="1" as="geometry">
            <Array as="points">
              <mxPoint x="560" y="940" />
              <mxPoint x="680" y="940" />
            </Array>
          </mxGeometry>
        </mxCell>

        <mxCell id="flow20" value="" style="endArrow=classic;html=1;strokeColor=#82b366;strokeWidth=2;edgeStyle=orthogonalEdgeStyle" edge="1" parent="1" source="mergeReports" target="detailedReports">
          <mxGeometry relative="1" as="geometry">
            <Array as="points">
              <mxPoint x="670" y="940" />
              <mxPoint x="870" y="940" />
            </Array>
          </mxGeometry>
        </mxCell>

        <mxCell id="flow21" value="24.3MB" style="endArrow=classic;html=1;strokeColor=#82b366;strokeWidth=2;edgeStyle=orthogonalEdgeStyle;fontColor=#82b366;fontSize=10;labelBackgroundColor=#FFFFFF;fontStyle=1" edge="1" parent="1" source="mergeReports" target="completeReport">
          <mxGeometry relative="1" as="geometry">
            <Array as="points">
              <mxPoint x="670" y="940" />
              <mxPoint x="1080" y="940" />
            </Array>
          </mxGeometry>
        </mxCell>

        <!-- Performance Metrics Box -->
        <mxCell id="performance" value="&lt;b&gt;⚡ Performance Metrics:&lt;/b&gt;&lt;br/&gt;• Index creation: ~27.88 seconds&lt;br/&gt;• Rule analysis: Real-time processing&lt;br/&gt;• Batch processing: 500 files per batch&lt;br/&gt;• Memory optimization: TF-IDF vectorization&lt;br/&gt;• Encoding support: Multi-format detection&lt;br/&gt;• Output efficiency: Structured reporting" style="rounded=1;whiteSpace=wrap;html=1;spacing=10;fillColor=#e8f5e8;strokeColor=#4caf50;fontColor=#000000;strokeWidth=2;fontSize=11;align=left;verticalAlign=top" vertex="1" parent="1">
          <mxGeometry x="1200" y="700" width="280" height="140" as="geometry" />
        </mxCell>

        <!-- Legend -->
        <mxCell id="legend" value="&lt;b&gt;🏷️ Component Legend:&lt;/b&gt;&lt;br/&gt;&lt;font color=&quot;#82b366&quot;&gt;■&lt;/font&gt; Input/Output Components&lt;br/&gt;&lt;font color=&quot;#6c8ebf&quot;&gt;■&lt;/font&gt; Core Processing&lt;br/&gt;&lt;font color=&quot;#b85450&quot;&gt;■&lt;/font&gt; Analysis Engine&lt;br/&gt;&lt;font color=&quot;#9673a6&quot;&gt;■&lt;/font&gt; Data Processing&lt;br/&gt;&lt;font color=&quot;#d6b656&quot;&gt;■&lt;/font&gt; Report Generation&lt;br/&gt;&lt;font color=&quot;#fdcb6e&quot;&gt;■&lt;/font&gt; Data Storage" style="rounded=1;whiteSpace=wrap;html=1;spacing=10;fillColor=#f8f9fa;strokeColor=#6c757d;fontColor=#000000;strokeWidth=2;fontSize=11;align=left;verticalAlign=top" vertex="1" parent="1">
          <mxGeometry x="1200" y="870" width="280" height="140" as="geometry" />
        </mxCell>

        <!-- Architecture Flow Indicators -->
        <mxCell id="flowIndicator1" value="Data Flow" style="text;html=1;fontSize=12;fontStyle=1;fontColor=#333333;align=center" vertex="1" parent="1">
          <mxGeometry x="50" y="500" width="80" height="20" as="geometry" />
        </mxCell>

        <mxCell id="flowArrow1" value="" style="endArrow=classic;html=1;strokeColor=#333333;strokeWidth=3;edgeStyle=orthogonalEdgeStyle" edge="1" parent="1">
          <mxGeometry relative="1" as="geometry">
            <mxPoint x="50" y="530" as="sourcePoint" />
            <mxPoint x="150" y="530" as="targetPoint" />
          </mxGeometry>
        </mxCell>

      </root>
    </mxGraphModel>
  </diagram>
</mxfile>